<svg width="12" height="12" viewBox="0 0 12 12" fill="none" xmlns="http://www.w3.org/2000/svg">
<path fill-rule="evenodd" clip-rule="evenodd" d="M7.10808 6L11.7708 10.6627C12.0764 10.9683 12.0764 11.4644 11.7708 11.7708C11.4644 12.0764 10.9683 12.0764 10.6627 11.7708L6 7.10808L1.33729 11.7708C1.03167 12.0764 0.535623 12.0764 0.229217 11.7708C-0.0764057 11.4644 -0.0764057 10.9683 0.229217 10.6627L4.89192 6L0.229217 1.33729C-0.0764057 1.03167 -0.0764057 0.535623 0.229217 0.229217C0.535623 -0.0764057 1.03167 -0.0764057 1.33729 0.229217L6 4.89192L10.6627 0.229217C10.9683 -0.0764057 11.4644 -0.0764057 11.7708 0.229217C12.0764 0.535623 12.0764 1.03167 11.7708 1.33729L7.10808 6Z" fill="#1D3976"/>
</svg>
