<svg width="31" height="16" viewBox="0 0 31 16" fill="none" xmlns="http://www.w3.org/2000/svg">
<path d="M15.344 0C7.008 0 0.594 7.344 0.594 7.344L0 8L0.594 8.656C0.594 8.656 6.442 15.324 14.219 15.938C14.59 15.984 14.961 16 15.344 16C15.727 16 16.098 15.984 16.469 15.937C24.246 15.324 30.094 8.657 30.094 8.657L30.688 8L30.094 7.344C30.094 7.344 23.68 0 15.344 0ZM15.344 2C17.547 2 19.578 2.602 21.344 3.406C21.981 4.461 22.344 5.676 22.344 7C22.3482 8.72378 21.7158 10.3884 20.5681 11.6746C19.4204 12.9607 17.8381 13.7778 16.125 13.969C16.105 13.973 16.082 13.965 16.063 13.969C15.824 13.98 15.586 14 15.344 14C15.078 14 14.821 13.984 14.563 13.969C12.8499 13.7778 11.2676 12.9607 10.1199 11.6746C8.97218 10.3884 8.33977 8.72378 8.344 7C8.344 5.695 8.696 4.48 9.313 3.437H9.282C11.061 2.617 13.117 2 15.344 2ZM15.344 4C14.5481 4.00027 13.7849 4.3167 13.2223 4.87968C12.6597 5.44266 12.3437 6.20609 12.344 7.002C12.3443 7.79791 12.6607 8.56113 13.2237 9.12374C13.7867 9.68634 14.5501 10.0023 15.346 10.002C15.7401 10.0019 16.1303 9.92412 16.4944 9.77318C16.8584 9.62224 17.1892 9.40108 17.4677 9.12232C17.7463 8.84356 17.9673 8.51266 18.1179 8.14851C18.2686 7.78436 18.3461 7.3941 18.346 7C18.3459 6.6059 18.2681 6.21569 18.1172 5.85164C17.9662 5.4876 17.7451 5.15684 17.4663 4.87827C17.1876 4.59969 16.8567 4.37875 16.4925 4.22806C16.1284 4.07736 15.7381 3.99987 15.344 4ZM6.594 4.938C6.43142 5.61339 6.34753 6.30533 6.344 7C6.344 8.754 6.844 10.395 7.719 11.781C5.9438 10.7411 4.31484 9.46958 2.875 8C4.00847 6.85649 5.25445 5.83029 6.594 4.937V4.938ZM24.094 4.938C25.4335 5.83097 26.6795 6.85684 27.813 8C26.3732 9.46958 24.7442 10.7411 22.969 11.781C23.871 10.3498 24.3478 8.69174 24.344 7C24.344 6.285 24.25 5.602 24.094 4.937V4.938Z" fill="#0E2149"/>
</svg>
