<svg width="182" height="179" viewBox="0 0 182 179" fill="none" xmlns="http://www.w3.org/2000/svg">
<path fill-rule="evenodd" clip-rule="evenodd" d="M104.064 9.5865H75.1574L65.5218 0L56.5286 9.5865H43.0388V23.0076L22.483 42.8197H8.99319V56.2408L0 65.1882L9.63556 74.7747V103.534L0 112.482L9.63556 122.068V135.489H23.1253L43.6812 155.94V169.361H57.171L66.8065 178.948L76.4421 169.361H105.349L114.984 178.948L124.62 169.361H138.11V155.94L158.666 135.489H172.155V122.068L181.791 112.482L172.155 102.895V74.1356L181.791 64.5491L172.155 54.9626V42.8197H158.666L138.11 22.3685V9.5865H124.62L113.057 0L104.064 9.5865ZM107.918 18.5339L113.057 12.782L118.839 18.5339H126.547V26.2031L152.242 51.7671H160.593V59.4363L166.374 65.1882L160.593 70.9401V107.369L166.374 113.121L160.593 118.233V125.903H152.884L127.189 151.467V159.136H119.481L113.7 164.888L107.918 159.775H71.3031L65.5218 165.527L60.3828 159.775H52.032V152.106L26.3372 126.542H18.6287V118.873L12.8474 112.482L18.6287 106.73V70.301L12.8474 65.1882L18.6287 59.4363V51.7671H26.3372L52.032 26.2031V18.5339H59.7405L65.5218 12.782L71.3031 18.5339H107.918ZM71.3031 24.9249V29.3986C71.3031 31.955 71.3031 33.8723 70.6608 36.4287C70.6608 37.7069 70.0184 39.6242 69.376 40.9024C68.7337 44.0979 67.4489 46.6543 66.1642 49.2107C65.5218 50.4889 64.2371 51.7671 63.5947 53.0453C61.0252 56.8799 57.171 60.0754 53.3168 63.2709C54.6015 65.8273 55.8862 69.0228 57.171 71.5792C62.9523 67.7446 68.0913 62.6318 71.9455 56.8799C72.5879 55.6017 73.8726 54.3235 74.515 53.0453C75.7997 50.4889 77.0845 47.2934 77.7268 44.737C78.3692 43.4588 78.3692 41.5415 79.0116 40.2633C79.654 38.346 79.654 36.4287 79.654 33.8723H98.9251C98.9251 35.7896 99.5674 37.7069 99.5674 40.2633C102.779 39.6242 105.349 38.346 107.918 36.4287C107.276 33.8723 107.276 31.955 107.276 29.3986V24.9249H71.3031ZM118.839 33.8723C117.554 35.7896 115.627 37.0678 113.7 38.346C112.415 38.9851 111.13 40.2633 109.845 40.9024C107.276 42.1806 104.706 43.4588 101.495 44.0979C100.21 44.737 98.2827 44.737 96.998 45.3761C94.4285 46.0152 92.5014 46.0152 89.9319 46.0152C87.3624 46.0152 84.7929 46.0152 82.8658 45.3761C82.2234 48.5716 80.9387 51.128 79.654 53.6844C82.8658 54.3235 86.72 54.9626 89.9319 54.9626C93.7861 54.9626 96.998 54.3235 100.21 53.6844C101.495 53.0453 103.422 53.0453 104.706 52.4062C107.276 51.7671 110.488 50.4889 113.057 49.2107C114.342 48.5716 115.627 47.9325 116.911 46.6543C118.839 46.0152 120.766 44.737 122.05 43.4588L135.54 56.8799C134.255 58.7972 132.971 60.0754 131.686 61.9927C134.255 63.2709 137.467 64.5491 140.037 65.1882C141.322 63.2709 142.606 61.3536 144.533 60.0754L147.745 56.8799L122.05 31.3159L118.839 33.8723ZM30.8338 56.8799L34.0456 60.0754C35.9728 61.3536 37.2575 63.2709 38.5422 65.1882C39.1846 66.4664 40.4693 67.7446 41.1117 69.0228C42.3965 71.5792 43.6812 74.1356 44.3236 77.3311C44.9659 78.6093 44.9659 80.5266 45.6083 81.8048C46.2507 84.3612 46.2507 86.2785 46.2507 88.8349C46.2507 91.3913 46.2507 93.9477 45.6083 95.865C48.8202 96.5041 51.3896 97.7823 53.9591 99.0605C54.6015 95.865 55.2439 92.0304 55.2439 88.8349C55.2439 85.0003 54.6015 81.8048 53.9591 78.6093C53.3168 77.3311 53.3168 75.4138 52.6744 74.1356C52.032 71.5792 50.7473 68.3837 49.4625 65.8273C48.8202 64.5491 48.1778 63.2709 46.8931 61.9927C46.2507 60.0754 44.9659 58.1581 43.6812 56.8799L57.171 43.4588C58.4557 44.737 60.3828 46.0152 62.3099 47.2934C63.5947 44.737 64.8794 41.5415 65.5218 38.9851C63.5947 37.0678 61.6676 35.7896 60.3828 33.8723L57.171 30.6768L30.8338 56.8799ZM107.276 56.8799C111.13 62.6318 116.269 67.7446 122.05 71.5792C123.335 72.2183 124.62 73.4965 125.905 74.1356C128.474 75.4138 131.044 76.692 134.255 77.3311C135.54 77.9702 137.467 77.9702 138.752 78.6093C140.679 79.2484 142.606 79.2484 145.176 79.2484V98.4214C143.249 98.4214 141.322 99.0605 138.752 99.0605C139.394 102.256 140.679 104.812 142.606 107.369C145.176 106.73 147.103 106.73 149.672 106.73H154.169V70.301H149.672C147.103 70.301 145.176 70.301 142.606 69.6619C141.322 69.6619 139.394 69.0228 138.11 68.3837C134.898 67.7446 132.328 66.4664 129.759 65.1882C128.474 64.5491 127.189 63.91 125.905 62.6318C122.05 60.0754 118.839 56.2408 115.627 52.4062C113.057 54.9626 109.845 55.6017 107.276 56.8799ZM75.7997 66.4664V112.482H84.7929V98.4214H91.859C100.852 98.4214 107.918 91.3913 107.918 82.4439C107.918 73.4965 100.852 66.4664 91.859 66.4664H75.7997ZM84.7929 75.4138H91.859C95.7132 75.4138 98.9251 78.6093 98.9251 82.4439C98.9251 86.2785 95.7132 89.474 91.859 89.474H84.7929V75.4138ZM29.549 70.9401H25.0525V107.369H29.549C32.1185 107.369 34.0456 107.369 36.6151 108.008C37.8999 108.008 39.827 108.647 41.1117 109.286C44.3236 109.925 46.8931 111.203 49.4625 112.482C50.7473 113.121 52.032 113.76 53.3168 115.038C57.171 117.594 60.3828 121.429 63.5947 125.264C66.1642 123.985 69.376 122.707 71.9455 121.429C68.0913 115.677 62.9523 110.564 57.171 106.73C55.8862 106.091 54.6015 104.812 53.3168 104.173C50.7473 102.895 48.1778 101.617 44.9659 100.978C43.6812 100.339 41.7541 100.339 40.4693 99.6996C38.5422 99.0605 36.6151 99.0605 34.0456 99.0605V79.8875C35.9728 79.8875 37.8999 79.2484 40.4693 79.2484C39.827 76.0529 38.5422 73.4965 36.6151 70.9401C34.0456 70.9401 32.1185 70.9401 29.549 70.9401ZM124.62 99.6996C125.262 100.978 125.262 102.895 125.905 104.173C126.547 106.73 127.832 109.925 129.117 112.482C129.759 113.76 130.401 115.038 131.686 116.316C132.971 118.233 134.255 119.512 135.54 121.429L122.05 134.85C120.123 133.572 118.839 132.294 116.911 131.015C115.627 133.572 114.342 136.767 113.7 139.324C115.627 140.602 117.554 141.88 118.839 143.797L122.05 146.993L147.745 121.429L144.533 118.233C142.606 116.316 141.322 115.038 140.037 113.121C139.394 111.842 138.11 110.564 137.467 109.286C136.183 106.73 134.898 103.534 134.255 100.978C133.613 99.6996 133.613 97.7823 132.971 96.5041C132.328 92.0304 132.328 86.9176 132.971 82.4439C129.759 81.8048 127.189 80.5266 124.62 79.2484C123.335 85.6394 123.335 92.6695 124.62 99.6996ZM107.276 121.429C106.634 122.707 105.349 123.985 104.706 125.264C103.422 127.82 102.137 130.376 101.495 133.572C100.852 134.85 100.852 136.767 100.21 138.046C99.5674 139.963 99.5674 141.88 99.5674 144.437H80.2963C80.2963 142.519 79.654 140.602 79.654 138.046C76.4421 138.685 73.8726 139.963 71.3031 141.88C71.9455 144.437 71.9455 146.354 71.9455 148.91V153.384H108.561V148.91C108.561 146.354 108.561 144.437 109.203 141.88C109.203 140.602 109.845 138.685 110.488 137.406C111.13 134.211 112.415 131.655 113.7 129.098C114.342 127.82 114.984 126.542 116.269 125.264C118.839 121.429 122.693 118.233 126.547 115.038C125.262 112.482 123.978 109.286 122.693 106.73C116.269 110.564 111.13 115.677 107.276 121.429ZM34.0456 118.233L30.8338 121.429L56.5286 146.993L59.7405 143.797C61.6676 141.88 62.9523 140.602 64.8794 139.324C66.1642 138.685 67.4489 137.406 68.7337 136.767C71.3031 135.489 73.8726 134.211 77.0845 133.572C78.3692 132.933 80.2963 132.933 81.5811 132.294C84.1506 131.655 86.0777 131.655 88.6471 131.655C91.2166 131.655 93.7861 131.655 95.7132 132.294C96.3556 129.098 97.6403 126.542 98.9251 123.985C95.7132 123.346 91.859 122.707 88.6471 122.707C84.7929 122.707 81.5811 123.346 78.3692 123.985C77.0845 123.985 75.1574 124.624 73.8726 125.264C71.3031 125.903 68.0913 127.181 65.5218 128.459C64.2371 129.098 62.9523 129.737 61.6676 131.015C59.7405 132.294 58.4557 133.572 56.5286 134.85L43.6812 121.429C44.9659 120.151 46.2507 118.233 47.5354 116.316C44.3236 115.038 41.7541 113.76 38.5422 113.121C37.2575 115.038 35.9728 116.955 34.0456 118.233Z" fill="url(#paint0_linear_1017_1497)"/>
<defs>
<linearGradient id="paint0_linear_1017_1497" x1="128.182" y1="12.0165" x2="59.434" y2="179.332" gradientUnits="userSpaceOnUse">
<stop stop-color="#D79F43"/>
<stop offset="1" stop-color="#C26D30"/>
</linearGradient>
</defs>
</svg>
