<svg width="36" height="36" viewBox="0 0 36 36" fill="none" xmlns="http://www.w3.org/2000/svg">
<mask id="mask0_1018_1598" style="mask-type:alpha" maskUnits="userSpaceOnUse" x="0" y="0" width="36" height="36">
<path fill-rule="evenodd" clip-rule="evenodd" d="M0 18C0 8.05888 8.05888 0 18 0C27.9411 0 36 8.05888 36 18C36 27.9411 27.9411 36 18 36C8.05888 36 0 27.9411 0 18Z" fill="white"/>
</mask>
<g mask="url(#mask0_1018_1598)">
<path fill-rule="evenodd" clip-rule="evenodd" d="M0 18C0 8.05888 8.05888 0 18 0C27.9411 0 36 8.05888 36 18C36 27.9411 27.9411 36 18 36C8.05888 36 0 27.9411 0 18Z" fill="url(#paint0_linear_1018_1598)"/>
<path fill-rule="evenodd" clip-rule="evenodd" d="M18.0008 8.40002C15.3936 8.40002 15.0664 8.41142 14.0424 8.45803C13.0204 8.50483 12.3227 8.66663 11.7123 8.90403C11.0809 9.14923 10.5453 9.47724 10.0117 10.011C9.47771 10.5446 9.14971 11.0803 8.90371 11.7115C8.66571 12.3221 8.5037 13.0199 8.4577 14.0415C8.4119 15.0655 8.3999 15.3929 8.3999 18.0001C8.3999 20.6074 8.4115 20.9336 8.4579 21.9576C8.5049 22.9796 8.66671 23.6772 8.90391 24.2876C9.14931 24.919 9.47731 25.4546 10.0111 25.9882C10.5445 26.5222 11.0801 26.851 11.7111 27.0962C12.3219 27.3336 13.0198 27.4954 14.0416 27.5422C15.0656 27.5888 15.3926 27.6002 17.9996 27.6002C20.607 27.6002 20.9332 27.5888 21.9572 27.5422C22.9793 27.4954 23.6777 27.3336 24.2885 27.0962C24.9197 26.851 25.4545 26.5222 25.9879 25.9882C26.5219 25.4546 26.8499 24.919 27.0959 24.2878C27.3319 23.6772 27.4939 22.9794 27.5419 21.9578C27.5879 20.9338 27.5999 20.6074 27.5999 18.0001C27.5999 15.3929 27.5879 15.0657 27.5419 14.0417C27.4939 13.0197 27.3319 12.3221 27.0959 11.7117C26.8499 11.0803 26.5219 10.5446 25.9879 10.011C25.4539 9.47704 24.9199 9.14903 24.2879 8.90403C23.6759 8.66663 22.9779 8.50483 21.9558 8.45803C20.9318 8.41142 20.6058 8.40002 17.9978 8.40002H18.0008ZM17.1397 10.13C17.3953 10.1296 17.6805 10.13 18.0009 10.13C20.5642 10.13 20.868 10.1392 21.8802 10.1852C22.8162 10.228 23.3242 10.3845 23.6626 10.5159C24.1106 10.6899 24.43 10.8979 24.7658 11.2339C25.1018 11.5699 25.3098 11.8899 25.4842 12.3379C25.6156 12.6759 25.7722 13.1839 25.8148 14.1199C25.8608 15.1319 25.8708 15.4359 25.8708 17.9979C25.8708 20.56 25.8608 20.864 25.8148 21.876C25.772 22.812 25.6156 23.32 25.4842 23.658C25.3102 24.106 25.1018 24.425 24.7658 24.7608C24.4298 25.0968 24.1108 25.3048 23.6626 25.4788C23.3246 25.6108 22.8162 25.7668 21.8802 25.8096C20.8682 25.8556 20.5642 25.8656 18.0009 25.8656C15.4375 25.8656 15.1337 25.8556 14.1217 25.8096C13.1857 25.7664 12.6777 25.61 12.3391 25.4786C11.8911 25.3046 11.5711 25.0966 11.2351 24.7606C10.8991 24.4246 10.6911 24.1054 10.5167 23.6572C10.3853 23.3192 10.2287 22.8112 10.1861 21.8752C10.1401 20.8632 10.1309 20.5592 10.1309 17.9955C10.1309 15.4319 10.1401 15.1295 10.1861 14.1175C10.2289 13.1815 10.3853 12.6735 10.5167 12.3351C10.6907 11.8871 10.8991 11.5671 11.2351 11.2311C11.5711 10.8951 11.8911 10.6871 12.3391 10.5127C12.6775 10.3807 13.1857 10.2246 14.1217 10.1816C15.0073 10.1416 15.3505 10.1296 17.1397 10.1276V10.13ZM23.1254 11.7241C22.4894 11.7241 21.9734 12.2395 21.9734 12.8757C21.9734 13.5117 22.4894 14.0277 23.1254 14.0277C23.7614 14.0277 24.2774 13.5117 24.2774 12.8757C24.2774 12.2397 23.7614 11.7237 23.1254 11.7237V11.7241ZM18.0009 13.0701C15.2782 13.0701 13.0708 15.2775 13.0708 18.0001C13.0708 20.7228 15.2782 22.9292 18.0009 22.9292C20.7235 22.9292 22.9301 20.7228 22.9301 18.0001C22.9301 15.2775 20.7233 13.0701 18.0007 13.0701H18.0009ZM18.001 14.8001C19.7682 14.8001 21.201 16.2327 21.201 18.0001C21.201 19.7673 19.7682 21.2002 18.001 21.2002C16.2335 21.2002 14.8009 19.7673 14.8009 18.0001C14.8009 16.2327 16.2335 14.8001 18.001 14.8001Z" fill="white"/>
</g>
<defs>
<linearGradient id="paint0_linear_1018_1598" x1="29.4" y1="3.59985" x2="7.5" y2="32.9999" gradientUnits="userSpaceOnUse">
<stop stop-color="#9454D4"/>
<stop offset="0.520833" stop-color="#E04380"/>
<stop offset="1" stop-color="#F89B4E"/>
</linearGradient>
</defs>
</svg>
