<svg width="215" height="54" viewBox="0 0 215 54" fill="none" xmlns="http://www.w3.org/2000/svg">
<g clip-path="url(#clip0_1017_757)">
<path d="M80.8135 24.1055C80.8135 27.7566 77.8548 30.1907 74.0259 30.1907H71.5893V35.5805H67.0642V18.0203H74.0259C77.8548 18.0203 80.8135 20.2805 80.8135 24.1055ZM71.5893 22.0191V26.1919H74.0259C75.2442 26.1919 76.1144 25.3225 76.1144 24.1055C76.1144 22.8884 75.2442 22.0191 74.0259 22.0191H71.5893Z" fill="#0E2149"/>
<path d="M99.9581 22.193H92.3002V24.6271H97.8696V28.4521H92.3002V31.4078H100.306V35.5805H87.7751V18.0203H99.9581V22.193Z" fill="#0E2149"/>
<path d="M124.15 22.3669L120.669 24.801C119.625 23.0624 118.232 21.8453 116.144 21.8453C113.359 21.8453 111.271 23.7578 111.271 26.7135C111.271 29.6692 113.185 31.5817 116.144 31.5817C118.232 31.5817 119.625 30.5385 120.669 28.626L124.15 31.0601C122.583 34.0158 119.625 35.7544 116.144 35.7544C110.923 35.7544 106.746 31.7556 106.746 26.7135C106.746 21.4976 110.923 17.6726 116.318 17.6726C119.625 17.6726 122.583 19.4112 124.15 22.3669Z" fill="#0E2149"/>
<path d="M146.949 35.5805H142.424V28.6259H135.985V35.5805H131.46V18.0203H135.985V24.4532H142.424V18.0203H146.949V35.5805Z" fill="#0E2149"/>
<path d="M173.404 26.8865C173.404 32.1024 169.227 35.9274 163.832 35.9274C158.611 35.9274 154.434 32.1024 154.434 26.8865C154.434 21.6705 158.611 17.8455 163.832 17.8455C169.227 17.6717 173.404 21.6705 173.404 26.8865ZM159.133 26.8865C159.133 29.8421 161.047 31.7546 164.006 31.7546C166.791 31.7546 168.879 29.8421 168.879 26.8865C168.879 23.9308 166.791 22.0183 164.006 22.0183C161.047 21.8444 159.133 23.9308 159.133 26.8865Z" fill="#0E2149"/>
<path d="M194.463 22.193H189.068V35.5805H184.543V22.193H179.321V18.0203H194.463V22.193Z" fill="#0E2149"/>
<path d="M209.431 34.1897H203.165L202.469 35.5806H197.596L205.602 17.6726H206.994L215 35.5806H210.127L209.431 34.1897ZM206.298 26.3658L204.731 30.3647H207.864L206.298 26.3658Z" fill="#0E2149"/>
<path fill-rule="evenodd" clip-rule="evenodd" d="M31.3276 2.78182H22.6255L19.6668 0L16.8821 2.78182H12.8791V6.78068L6.78764 12.8659H2.78467V16.8648L0 19.6466L2.78467 22.4284V31.1216L0 33.9034L2.78467 36.6852V40.6841H6.78764L12.8791 46.7693V50.7682H16.8821L19.6668 53.55L22.4514 50.7682H31.1535L33.9382 53.55L36.7229 50.7682H40.7258V46.7693L46.8173 40.6841H50.8203V36.6852L53.605 33.9034L50.8203 31.1216V22.4284L53.605 19.6466L50.8203 16.8648V13.0398H46.8173L41.0739 6.95455V2.78182H37.071L34.1123 0L31.3276 2.78182ZM32.3718 5.7375L34.1123 3.99886L35.8527 5.7375H38.2893V8.17159L46.1212 15.9955H48.5577V18.4295L50.2982 20.1682L48.5577 21.9068V32.8602L50.2982 34.5989L48.5577 36.3375V38.7716H46.1212L38.2893 46.5955V49.0295H35.8527L34.1123 50.7682L32.3718 49.0295H21.4072L19.6668 50.7682L17.9263 49.0295H15.4897V46.5955L7.65785 38.7716H5.22126V36.3375L3.48084 34.5989L5.22126 32.8602V21.9068L3.48084 20.1682L5.22126 18.4295V15.8216H7.65785L15.4897 7.99773V5.7375H17.9263L19.6668 3.99886L21.4072 5.7375H32.3718ZM21.4072 7.65V9.04091C21.4072 9.73636 21.4072 10.4318 21.2331 11.1273C21.2331 11.6489 21.0591 12.1705 20.885 12.5182C20.537 13.3875 20.1889 14.2568 19.8408 15.1261C19.6668 15.4739 19.3187 15.9955 19.1446 16.3432C18.2744 17.5602 17.2302 18.6034 16.0119 19.4727C16.534 20.342 16.8821 21.2114 17.0561 22.0807C18.7965 20.8636 20.3629 19.2989 21.5812 17.5602C21.7553 17.2125 22.1033 16.6909 22.2774 16.3432C22.6255 15.4739 22.9736 14.6045 23.3216 13.7352C23.4957 13.2136 23.4957 12.8659 23.6697 12.3443C23.8438 11.6489 23.8438 11.1273 24.0178 10.4318H29.7612C29.7612 11.1273 29.9352 11.6489 30.1093 12.3443C30.9795 11.9966 31.8497 11.6489 32.7199 11.3011C32.5459 10.6057 32.5459 9.91023 32.5459 9.21477V7.65H21.4072ZM35.8527 10.4318C35.3305 10.9534 34.8084 11.475 34.2863 11.8227C33.9382 12.1705 33.4161 12.3443 33.068 12.5182C32.1978 13.0398 31.3276 13.3875 30.4574 13.5614C29.9352 13.7352 29.5872 13.7352 29.065 13.9091C28.3689 14.083 27.6727 14.083 26.9765 14.083C26.2804 14.083 25.5842 14.083 24.714 13.9091C24.3659 14.7784 24.0178 15.6477 23.6697 16.517C24.714 16.6909 25.7582 16.8648 26.8025 16.8648C27.8467 16.8648 28.891 16.6909 29.9352 16.517C30.4574 16.3432 30.8054 16.3432 31.3276 16.1693C32.1978 15.8216 33.068 15.4739 33.9382 15.1261C34.2863 14.9523 34.8084 14.6045 35.1565 14.4307C35.6786 14.083 36.2008 13.7352 36.7229 13.3875L40.8999 17.5602C40.5518 18.0818 40.0297 18.6034 39.8556 19.125C40.7258 19.6466 41.5961 19.9943 42.4663 20.1682C42.8144 19.6466 43.3365 19.125 43.8586 18.6034L44.9029 17.5602L37.071 9.73636L35.8527 10.4318ZM9.05019 17.2125L10.0944 18.2557C10.6166 18.7773 11.1387 19.2989 11.4868 19.8205C11.8349 20.1682 12.0089 20.6898 12.1829 21.0375C12.7051 21.9068 13.0532 22.7761 13.2272 23.6455C13.4012 24.167 13.4012 24.5148 13.5753 25.0364C13.7493 25.7318 13.7493 26.4273 13.7493 27.1227C13.7493 27.8182 13.7493 28.5136 13.5753 29.383C14.4455 29.7307 15.3157 30.0784 16.1859 30.4261C16.36 29.383 16.534 28.3398 16.534 27.2966C16.534 26.2534 16.36 25.2102 16.1859 24.167C16.0119 23.6455 16.0119 23.2977 15.8378 22.7761C15.4897 21.9068 15.1417 21.0375 14.7936 20.1682C14.6195 19.8205 14.2715 19.2989 14.0974 18.9511C13.7493 18.4295 13.4012 17.908 13.0532 17.3864L17.2302 13.2136C17.7523 13.5614 18.2744 13.9091 18.7965 14.2568C19.3187 13.3875 19.6668 12.5182 19.8408 11.6489C19.3187 11.3011 18.7965 10.7795 18.2744 10.258L17.2302 9.21477L9.05019 17.2125ZM32.1978 17.3864C33.4161 19.125 34.9825 20.6898 36.7229 21.9068C37.071 22.0807 37.5931 22.4284 37.9412 22.6023C38.8114 22.95 39.6816 23.2977 40.5518 23.6455C41.0739 23.8193 41.422 23.8193 41.9441 23.9932C42.6403 24.167 43.1624 24.167 43.8586 24.3409V30.0784C43.1624 30.0784 42.6403 30.2523 41.9441 30.4261C42.1182 31.2955 42.6403 32.1648 42.9884 33.0341C43.6846 32.8602 44.3807 32.8602 45.0769 32.8602H46.4692V21.733H45.0769C44.3807 21.733 43.6846 21.733 42.9884 21.5591C42.4663 21.5591 41.9441 21.3852 41.5961 21.2114C40.7258 21.0375 39.8556 20.5159 38.9854 20.1682C38.6373 19.9943 38.1152 19.6466 37.7671 19.4727C36.5488 18.6034 35.5046 17.5602 34.6344 16.3432C33.9382 16.6909 33.068 17.0386 32.1978 17.3864ZM22.7995 20.1682V34.2511H25.5842V30.0784H27.6727C30.4574 30.0784 32.5459 27.8182 32.5459 25.2102C32.5459 22.4284 30.2833 20.342 27.6727 20.342H22.7995V20.1682ZM25.5842 22.95H27.6727C28.891 22.95 29.7612 23.8193 29.7612 25.0364C29.7612 26.2534 28.891 27.1227 27.6727 27.1227H25.5842V22.95ZM8.7021 21.5591H7.30977V32.6864H8.7021C9.39827 32.6864 10.0944 32.6864 10.7906 32.8602C11.3127 32.8602 11.8349 33.0341 12.1829 33.208C13.0532 33.5557 13.9234 33.9034 14.7936 34.2511C15.1417 34.425 15.6638 34.7727 16.0119 34.9466C17.2302 35.8159 18.2744 36.8591 19.1446 38.0761C20.0148 37.7284 20.885 37.2068 21.7553 37.033C20.537 35.2943 18.9706 33.7295 17.2302 32.5125C16.8821 32.3386 16.36 31.9909 16.0119 31.817C15.1417 31.4693 14.2715 31.1216 13.4012 30.7739C12.8791 30.6 12.531 30.6 12.0089 30.4261C11.3127 30.2523 10.7906 30.2523 10.0944 30.0784V24.3409C10.7906 24.3409 11.3127 24.167 12.0089 23.9932C11.6608 23.1239 11.3127 22.2545 10.9647 21.3852C10.0944 21.5591 9.39827 21.5591 8.7021 21.5591ZM37.5931 30.4261C37.7671 30.9477 37.7671 31.2955 37.9412 31.817C38.2893 32.6864 38.6373 33.5557 38.9854 34.425C39.1595 34.7727 39.5076 35.2943 39.6816 35.642C40.0297 36.1636 40.3778 36.6852 40.7258 37.2068L36.5488 41.3795C36.0267 41.0318 35.5046 40.5102 34.9825 40.3364C34.4603 41.2057 34.1122 42.075 33.9382 42.9443C34.4603 43.292 34.9825 43.8136 35.5046 44.3352L36.5488 45.3784L44.3807 37.5545L43.3365 36.5114C42.8144 35.9898 42.2922 35.4682 41.9441 34.9466C41.5961 34.5989 41.422 34.0773 41.248 33.7295C40.7258 32.8602 40.3778 31.9909 40.2037 31.1216C40.0297 30.6 40.0297 30.2523 39.8556 29.7307C39.6816 28.3398 39.6816 26.775 39.8556 25.3841C38.9854 25.0364 38.1152 24.6886 37.245 24.3409C37.245 26.0795 37.245 28.3398 37.5931 30.4261ZM32.1978 37.033C32.0237 37.3807 31.6757 37.9023 31.5016 38.25C31.1535 39.1193 30.8054 39.9886 30.4574 40.858C30.2833 41.2057 30.2833 41.7273 30.1093 42.075C29.9352 42.7705 29.9352 43.292 29.7612 43.9875H24.0178C24.0178 43.292 23.8438 42.7705 23.6697 42.075C22.7995 42.4227 21.9293 42.7705 21.0591 43.1182C21.2331 43.8136 21.2331 44.5091 21.2331 45.2045V46.5955H32.3718V45.2045C32.3718 44.5091 32.3718 43.8136 32.5459 43.1182C32.5459 42.5966 32.7199 42.075 32.894 41.7273C33.242 40.858 33.5901 39.9886 33.9382 39.1193C34.1122 38.7716 34.4603 38.25 34.6344 37.9023C35.5046 36.6852 36.5488 35.642 37.7671 34.7727C37.245 33.9034 36.8969 33.0341 36.7229 32.1648C34.9825 33.7295 33.4161 35.2943 32.1978 37.033ZM10.0944 36.1636L9.05019 37.2068L16.8821 45.0307L17.9263 43.9875C18.4485 43.4659 18.9706 42.9443 19.4927 42.5966C19.8408 42.2489 20.3629 42.075 20.711 41.9011C21.5812 41.3795 22.4514 41.0318 23.3216 40.858C23.8438 40.6841 24.1918 40.6841 24.714 40.5102C25.4101 40.3364 26.1063 40.3364 26.9765 40.3364C27.6727 40.3364 28.3689 40.3364 29.065 40.5102C29.4131 39.6409 29.7612 38.7716 30.1093 37.9023C29.065 37.7284 28.0208 37.5545 26.9765 37.5545C25.9323 37.5545 24.888 37.7284 23.8438 37.9023C23.3216 38.0761 22.9736 38.0761 22.4514 38.25C21.5812 38.5977 20.711 38.9455 19.8408 39.2932C19.4927 39.467 18.9706 39.8148 18.6225 39.9886C18.1004 40.3364 17.5783 40.6841 17.0561 41.0318L12.8791 37.033C13.2272 36.5114 13.7493 35.9898 13.9234 35.4682C13.0532 34.9466 12.1829 34.5989 11.3127 34.425C11.1387 35.1205 10.6166 35.642 10.0944 36.1636Z" fill="url(#paint0_linear_1017_757)"/>
</g>
<defs>
<linearGradient id="paint0_linear_1017_757" x1="-0.294827" y1="27.1898" x2="54.1396" y2="27.1898" gradientUnits="userSpaceOnUse">
<stop stop-color="#5B1D14"/>
<stop offset="0.1488" stop-color="#924E20"/>
<stop offset="0.3591" stop-color="#D09F51"/>
<stop offset="0.7202" stop-color="#DCBA93"/>
<stop offset="0.8591" stop-color="#BE864A"/>
<stop offset="0.9683" stop-color="#9F5805"/>
</linearGradient>
<clipPath id="clip0_1017_757">
<rect width="215" height="54" fill="white"/>
</clipPath>
</defs>
</svg>
