<svg width="36" height="36" viewBox="0 0 36 36" fill="none" xmlns="http://www.w3.org/2000/svg">
<path fill-rule="evenodd" clip-rule="evenodd" d="M0 18C0 8.05888 8.05888 0 18 0C27.9411 0 36 8.05888 36 18C36 27.9411 27.9411 36 18 36C8.05888 36 0 27.9411 0 18Z" fill="#4C6C91"/>
<path fill-rule="evenodd" clip-rule="evenodd" d="M18.9415 23.9071C18.9415 23.9071 19.288 23.8693 19.4655 23.6822C19.628 23.5107 19.6223 23.1872 19.6223 23.1872C19.6223 23.1872 19.6007 21.6763 20.3154 21.4533C21.0197 21.2339 21.924 22.9143 22.8837 23.5605C23.6087 24.049 24.159 23.9421 24.159 23.9421L26.7236 23.9071C26.7236 23.9071 28.0646 23.826 27.4288 22.7908C27.3763 22.706 27.0579 22.0248 25.5225 20.6255C23.9139 19.1608 24.1299 19.3977 26.0662 16.8637C27.2457 15.3206 27.7171 14.3785 27.5697 13.9757C27.4298 13.5904 26.5621 13.6927 26.5621 13.6927L23.6754 13.7102C23.6754 13.7102 23.4613 13.6816 23.3026 13.7748C23.1476 13.866 23.0471 14.0789 23.0471 14.0789C23.0471 14.0789 22.5907 15.2727 21.9813 16.2885C20.6957 18.4307 20.182 18.5441 19.9717 18.4114C19.4824 18.1007 19.6045 17.1651 19.6045 16.5005C19.6045 14.4237 19.9256 13.5581 18.98 13.3341C18.6664 13.2595 18.4353 13.2106 17.6324 13.2023C16.6023 13.1922 15.7308 13.206 15.2369 13.4429C14.9082 13.6005 14.6546 13.9527 14.8096 13.9729C15.0002 13.9978 15.4322 14.0872 15.6613 14.3933C15.9571 14.7887 15.9468 15.6755 15.9468 15.6755C15.9468 15.6755 16.1168 18.1201 15.5496 18.4233C15.1608 18.6317 14.6274 18.2067 13.4808 16.2627C12.8939 15.2671 12.4506 14.1665 12.4506 14.1665C12.4506 14.1665 12.3652 13.961 12.2121 13.8503C12.0271 13.7167 11.7689 13.6752 11.7689 13.6752L9.02583 13.6927C9.02583 13.6927 8.61358 13.7038 8.46239 13.8798C8.3281 14.0356 8.45206 14.3592 8.45206 14.3592C8.45206 14.3592 10.5997 19.2917 13.0319 21.7777C15.2622 24.0564 17.794 23.9071 17.794 23.9071H18.9415Z" fill="white"/>
</svg>
