<svg width="17" height="16" viewBox="0 0 17 16" fill="none" xmlns="http://www.w3.org/2000/svg">
<path d="M15.6038 3.0329C14.851 1.92919 13.8327 1.32131 12.7366 1.32131C12.6511 1.32131 12.5651 1.3256 12.4795 1.33323C12.2727 0.566019 11.5764 7.42131e-10 10.7511 7.42131e-10H2.9368C1.71121 -3.15446e-05 0.714111 1.0056 0.714111 2.24168V8.53406C0.714111 9.4738 1.44671 10.2441 2.36611 10.2947V13.2304C2.36611 13.2947 2.31405 13.3469 2.25008 13.3469C1.66917 13.3469 1.19655 13.8237 1.19655 14.4097V14.9372C1.19655 15.5232 1.66917 16 2.25008 16H11.703C12.2839 16 12.7565 15.5232 12.7565 14.9372V14.4097C12.7565 13.8237 12.2839 13.3469 11.703 13.3469C11.639 13.3469 11.5869 13.2947 11.5869 13.2304V12.3209C11.9573 12.477 12.3424 12.5563 12.7367 12.5563C13.8328 12.5563 14.851 11.9484 15.6038 10.8447C16.3198 9.79496 16.7141 8.40779 16.7141 6.93881C16.7141 5.46984 16.3198 4.0827 15.6038 3.0329ZM1.65161 8.53406V2.24168C1.65161 1.5274 2.22814 0.946329 2.9368 0.946329H10.7512C11.2219 0.946329 11.6049 1.33226 11.6049 1.8066C11.6049 2.12461 11.3481 2.38332 11.0324 2.38332H10.6256C9.82767 2.38332 9.17846 3.03817 9.17846 3.84305V3.99497C9.17846 4.19427 9.01742 4.35641 8.81949 4.35641C7.96164 4.35641 7.26374 5.06035 7.26374 5.92564V6.55942C7.26374 6.94878 6.94933 7.26556 6.56292 7.26556C6.17649 7.26556 5.86208 6.94881 5.86208 6.55945V5.66205C5.86208 4.94212 5.28146 4.35641 4.56777 4.35641C3.85408 4.35641 3.27346 4.94209 3.27346 5.66205V8.53403C3.27346 8.98456 2.90967 9.35112 2.46255 9.35112C2.01542 9.35112 1.65161 8.98459 1.65161 8.53406ZM11.703 14.2933C11.7669 14.2933 11.819 14.3455 11.819 14.4098V14.9372C11.819 15.0014 11.7669 15.0537 11.703 15.0537H2.25005C2.18608 15.0537 2.13402 15.0014 2.13402 14.9372V14.4098C2.13402 14.3455 2.18608 14.2933 2.25005 14.2933C2.83096 14.2933 3.30358 13.8165 3.30358 13.2305V10.0926C3.30358 10.0883 3.30305 10.0842 3.30296 10.0799C3.84364 9.77963 4.21089 9.19935 4.21089 8.53406V5.66208C4.21089 5.464 4.37096 5.30281 4.56771 5.30281C4.76446 5.30281 4.92452 5.46397 4.92452 5.66208V6.55948C4.92452 7.47067 5.65949 8.21195 6.56286 8.21195C7.46624 8.21195 8.20117 7.47064 8.20117 6.55945V5.92567C8.20117 5.5822 8.47852 5.30281 8.81942 5.30281C9.5343 5.30281 10.1159 4.71613 10.1159 3.995V3.84308C10.1159 3.55999 10.3445 3.32971 10.6256 3.32971H10.6494V13.2304C10.6494 13.8165 11.122 14.2933 11.703 14.2933ZM11.5869 6.13885C11.5869 5.22827 12.2394 4.52714 12.7366 4.52714C13.3101 4.52714 13.949 5.51757 13.949 6.93881C13.949 8.36006 13.3101 9.35049 12.7366 9.35049C12.1496 9.35049 11.5869 8.61873 11.5869 7.83287C11.5801 7.80095 11.5869 6.92872 11.5869 6.13885ZM14.8316 10.3081C14.259 11.1476 13.515 11.61 12.7367 11.61C12.3645 11.61 12 11.5051 11.6534 11.2983C11.6318 11.2854 11.6095 11.2751 11.5869 11.2661V9.79613C11.9196 10.1175 12.3136 10.2969 12.7367 10.2969C13.9422 10.2969 14.8865 8.82185 14.8865 6.93884C14.8865 5.05584 13.9422 3.58081 12.7367 3.58081C12.3139 3.58081 11.92 3.75879 11.5869 4.08074V3.2229C11.9999 3.05779 12.3239 2.71419 12.4651 2.28679C12.5549 2.27429 12.6461 2.26773 12.7367 2.26773C13.515 2.26773 14.259 2.73009 14.8316 3.56964C15.441 4.46304 15.7766 5.65959 15.7766 6.93881C15.7766 8.21804 15.441 9.41459 14.8316 10.3081Z" fill="#D5AF86"/>
<path d="M4.75085 10.4733C4.49198 10.4733 4.2821 10.6851 4.2821 10.9464V12.8767C4.2821 13.138 4.49198 13.3499 4.75085 13.3499C5.00973 13.3499 5.2196 13.138 5.2196 12.8767V10.9464C5.2196 10.6851 5.00973 10.4733 4.75085 10.4733Z" fill="#D5AF86"/>
<path d="M6.9765 8.71851C6.71763 8.71851 6.50775 8.93036 6.50775 9.19169V12.8767C6.50775 13.138 6.71763 13.3498 6.9765 13.3498C7.23538 13.3498 7.44525 13.138 7.44525 12.8767V9.19169C7.44525 8.93036 7.23541 8.71851 6.9765 8.71851Z" fill="#D5AF86"/>
<path d="M9.20215 6.83533C8.94327 6.83533 8.7334 7.04719 8.7334 7.30851V12.8766C8.7334 13.1379 8.94327 13.3498 9.20215 13.3498C9.46102 13.3498 9.6709 13.1379 9.6709 12.8766V7.30851C9.6709 7.04715 9.46102 6.83533 9.20215 6.83533Z" fill="#D5AF86"/>
</svg>
