<svg width="16" height="18" viewBox="0 0 16 18" fill="none" xmlns="http://www.w3.org/2000/svg">
<path d="M8.21838 7.92553C8.30302 7.92553 8.38605 7.89141 8.44591 7.83123C8.50574 7.77137 8.54021 7.68866 8.54021 7.60369C8.54021 7.51905 8.50578 7.43602 8.44591 7.37616C8.38605 7.3163 8.30302 7.28186 8.21838 7.28186C8.13374 7.28186 8.0507 7.3163 7.99084 7.37616C7.93066 7.43602 7.89655 7.51905 7.89655 7.60369C7.89655 7.68866 7.93066 7.77137 7.99084 7.83123C8.0507 7.89141 8.13374 7.92553 8.21838 7.92553Z" fill="#D5AF86" stroke="#D5AF86" stroke-width="0.2"/>
<path d="M9.79117 8.14267L9.63251 8.05104C9.47854 7.96212 9.28174 8.0149 9.19285 8.1688C9.10441 8.32196 9.15619 8.51764 9.30839 8.60714V9.87069L8.21416 10.5024L7.11992 9.87069V8.60717L7.12388 8.60489C7.27782 8.516 7.33053 8.3192 7.24167 8.16523C7.15278 8.0113 6.95592 7.95858 6.80202 8.04744L6.63717 8.14267C6.5376 8.20018 6.47626 8.30642 6.47626 8.42138V10.0565C6.47626 10.1715 6.5376 10.2777 6.63717 10.3352L8.05324 11.1528C8.10303 11.1815 8.15858 11.1959 8.21416 11.1959C8.26974 11.1959 8.32529 11.1815 8.37507 11.1528L9.79114 10.3352C9.89071 10.2777 9.95206 10.1715 9.95206 10.0565V8.42138C9.95206 8.30639 9.89075 8.20015 9.79117 8.14267Z" fill="#D5AF86" stroke="#D5AF86" stroke-width="0.2"/>
<path d="M15.5533 12.3614L14.3775 11.6825L14.8617 11.5528C14.9442 11.5307 15.0144 11.4768 15.0571 11.4028C15.0998 11.3289 15.1114 11.2411 15.0892 11.1586L14.756 9.91517C14.71 9.7435 14.5335 9.64161 14.3619 9.6876L12.0125 10.3171L11.3815 9.95279V8.5251L12.0125 8.16079L14.3619 8.79029C14.5335 8.83632 14.71 8.73439 14.756 8.56273L15.0892 7.31926C15.1114 7.23681 15.0998 7.14895 15.0571 7.07505C15.0144 7.00116 14.9441 6.94719 14.8617 6.92511L14.3775 6.79538L15.5533 6.11654C15.6272 6.07386 15.6812 6.00357 15.7033 5.92112C15.7254 5.83867 15.7138 5.7508 15.6711 5.67691L15.0274 4.56205C14.9386 4.40812 14.7418 4.3554 14.5878 4.44426L13.412 5.1231L13.5417 4.63894C13.5878 4.46727 13.4859 4.29078 13.3142 4.24479L12.0707 3.91159C11.9883 3.88951 11.9005 3.90104 11.8265 3.94374C11.7526 3.98642 11.6986 4.05671 11.6766 4.13916L11.0471 6.48848L10.416 6.85283L9.17968 6.13903V5.4104L10.8995 3.69056C10.9599 3.63021 10.9938 3.54834 10.9938 3.46299C10.9938 3.37764 10.9599 3.29576 10.8995 3.23542L9.98921 2.32515C9.86351 2.19947 9.65979 2.19947 9.53405 2.32515L9.17968 2.67952V1.32183C9.17968 1.14408 9.03556 1 8.85784 1H7.57051C7.39276 1 7.24868 1.14408 7.24868 1.32183V2.67952L6.89427 2.32512C6.83393 2.26477 6.75206 2.23085 6.66671 2.23085C6.58136 2.23085 6.49948 2.26477 6.43914 2.32512L5.52886 3.23539C5.40319 3.36106 5.40319 3.56485 5.52886 3.69053L7.24868 5.41037V6.13903L6.01232 6.85286L5.3813 6.48851L4.7518 4.13916C4.70578 3.9675 4.52938 3.86554 4.35762 3.91159L3.11415 4.24479C3.0317 4.2669 2.96141 4.3208 2.91873 4.39473C2.87606 4.46865 2.86447 4.55648 2.88658 4.63894L3.01631 5.12307L1.84053 4.44426C1.68666 4.3554 1.48979 4.40812 1.4009 4.56205L0.757237 5.67691C0.714562 5.75084 0.702976 5.83867 0.725086 5.92112C0.747196 6.00357 0.801103 6.07386 0.875028 6.11654L2.05085 6.79541L1.56671 6.92514C1.39505 6.97113 1.29315 7.14763 1.33914 7.31932L1.67234 8.56276C1.69445 8.64521 1.74835 8.7155 1.82228 8.75818C1.89624 8.80085 1.98403 8.81244 2.06649 8.79033L4.4158 8.16082L5.04682 8.52514V9.95276L4.4158 10.3171L2.06649 9.68756C1.984 9.66546 1.89614 9.67704 1.82228 9.71972C1.74835 9.76239 1.69442 9.83268 1.67234 9.91513L1.33914 11.1586C1.29312 11.3303 1.39501 11.5067 1.56671 11.5527L2.05085 11.6825L0.875028 12.3614C0.801103 12.404 0.747164 12.4743 0.725086 12.5568C0.702976 12.6392 0.714562 12.7271 0.757237 12.801L1.4009 13.9158C1.48976 14.0698 1.68659 14.1225 1.84053 14.0336L3.01635 13.3548L2.88661 13.8389C2.8645 13.9214 2.87609 14.0092 2.91877 14.0831C2.96144 14.157 3.03173 14.211 3.11418 14.2331L4.35765 14.5663C4.52928 14.6123 4.70581 14.5104 4.75183 14.3387L5.38134 11.9893L6.01236 11.625L7.24868 12.3388V13.0675L5.52886 14.7873C5.40319 14.913 5.40319 15.1168 5.52886 15.2424L6.43914 16.1527C6.49948 16.2131 6.58136 16.247 6.66671 16.247C6.75206 16.247 6.83393 16.2131 6.89427 16.1527L7.24868 15.7983V17.156C7.24868 17.3338 7.39276 17.4779 7.57051 17.4779H8.85784C9.03556 17.4779 9.17968 17.3338 9.17968 17.156V15.7983L9.53408 16.1527C9.65975 16.2785 9.86347 16.2785 9.98925 16.1527L10.8996 15.2425C10.9599 15.1821 10.9938 15.1003 10.9938 15.0149C10.9938 14.9296 10.9599 14.8477 10.8996 14.7873L9.17968 13.0675V12.3388L10.416 11.625L11.0471 11.9893L11.6766 14.3387C11.6987 14.4211 11.7526 14.4914 11.8265 14.5341C11.9004 14.5768 11.9882 14.5883 12.0707 14.5662L13.3142 14.233C13.4859 14.1871 13.5878 14.0106 13.5417 13.8389L13.412 13.3547L14.5878 14.0336C14.7418 14.1225 14.9386 14.0697 15.0274 13.9158L15.6711 12.8009C15.7138 12.727 15.7254 12.6392 15.7033 12.5567C15.6812 12.4743 15.6272 12.404 15.5533 12.3614ZM14.6309 13.3153L13.061 12.4089C12.9483 12.3438 12.8075 12.353 12.7042 12.4323C12.6009 12.5115 12.5555 12.6451 12.5892 12.7709L12.8367 13.6946L12.215 13.8612L11.6343 11.694C11.6122 11.6115 11.5583 11.5413 11.4844 11.4986L10.577 10.9747C10.4774 10.9172 10.3547 10.9172 10.2551 10.9747L8.69693 11.8743C8.59735 11.9318 8.53601 12.038 8.53601 12.153V13.2008C8.53601 13.2861 8.56993 13.368 8.63027 13.4284L10.2168 15.0149L9.76165 15.47L9.08541 14.7938C8.9934 14.7017 8.85495 14.6742 8.73468 14.724C8.61444 14.7738 8.53601 14.8912 8.53601 15.0214V16.8342H7.89234V15.0213C7.89234 14.8912 7.81391 14.7738 7.69368 14.724C7.57341 14.6742 7.43495 14.7017 7.34294 14.7938L6.66671 15.47L6.21157 15.0149L7.79808 13.4284C7.85842 13.368 7.89234 13.2861 7.89234 13.2008V12.153C7.89234 12.038 7.831 11.9318 7.73143 11.8743L6.17324 10.9747C6.07366 10.9172 5.95098 10.9172 5.85141 10.9747L4.94403 11.4986C4.8701 11.5413 4.81616 11.6115 4.79409 11.694L4.21337 13.8612L3.59165 13.6946L3.83918 12.7709C3.87287 12.6451 3.82749 12.5115 3.72422 12.4323C3.62097 12.353 3.48011 12.3438 3.3674 12.4089L1.7974 13.3153L1.47557 12.7579L3.04554 11.8514C3.15827 11.7863 3.22068 11.6597 3.20372 11.5307C3.18672 11.4016 3.09368 11.2955 2.96794 11.2618L2.04418 11.0143L2.21076 10.3926L4.37796 10.9733C4.46041 10.9955 4.54827 10.9838 4.62216 10.9412L5.52954 10.4173C5.62912 10.3598 5.69046 10.2536 5.69046 10.1386V8.33934C5.69046 8.22435 5.62912 8.11811 5.52954 8.06063L4.62216 7.53675C4.54827 7.49408 4.46047 7.48252 4.37796 7.5046L2.21076 8.08532L2.04418 7.4636L2.96794 7.21608C3.09368 7.18238 3.18672 7.07628 3.20372 6.94722C3.22071 6.81817 3.15827 6.69159 3.04554 6.62651L1.47557 5.72001L1.7974 5.16259L3.36737 6.069C3.48004 6.13404 3.62091 6.12487 3.72418 6.0456C3.82746 5.96637 3.87284 5.83271 3.83914 5.70697L3.59162 4.78321L4.21334 4.61663L4.79405 6.78386C4.81616 6.86631 4.87007 6.9366 4.944 6.97927L5.85137 7.50315C5.95095 7.56063 6.07363 7.56063 6.17321 7.50315L7.73143 6.60353C7.831 6.54606 7.89234 6.43982 7.89234 6.32483V5.27707C7.89234 5.19172 7.85842 5.10984 7.79808 5.0495L6.21157 3.46299L6.66671 3.00785L7.34294 3.68409C7.43495 3.77613 7.57341 3.80371 7.69368 3.75386C7.81394 3.70404 7.89234 3.5867 7.89234 3.45652V1.64367H8.53601V3.45652C8.53601 3.58667 8.61444 3.70404 8.73468 3.75386C8.85495 3.80368 8.9934 3.77613 9.08541 3.68409L9.76165 3.00785L10.2168 3.46299L8.63027 5.04953C8.56993 5.10987 8.53601 5.19175 8.53601 5.2771V6.32486C8.53601 6.43985 8.59735 6.54609 8.69693 6.60357L10.2551 7.50319C10.3547 7.5607 10.4774 7.56067 10.5769 7.50319L11.4844 6.97931C11.5583 6.93663 11.6122 6.86634 11.6343 6.78389L12.215 4.61666L12.8367 4.78325L12.5892 5.70704C12.5555 5.83278 12.6009 5.9664 12.7041 6.04564C12.8075 6.1249 12.9482 6.13408 13.061 6.06903L14.6309 5.16262L14.9528 5.72004L13.3828 6.62645C13.2701 6.69152 13.2077 6.81813 13.2247 6.94716C13.2416 7.07621 13.3347 7.18232 13.4604 7.21601L14.3842 7.46354L14.2176 8.08525L12.0503 7.50454C11.9679 7.4824 11.8801 7.49398 11.8061 7.53669L10.8987 8.06057C10.7992 8.11805 10.7378 8.22429 10.7378 8.33928V10.1385C10.7378 10.2535 10.7992 10.3597 10.8987 10.4172L11.8061 10.9411C11.8801 10.9838 11.968 10.9953 12.0503 10.9733L14.2176 10.3925L14.3842 11.0143L13.4604 11.2618C13.3347 11.2955 13.2416 11.4016 13.2247 11.5306C13.2077 11.6597 13.2701 11.7863 13.3828 11.8513L14.9528 12.7578L14.6309 13.3153Z" fill="#D5AF86" stroke="#D5AF86" stroke-width="0.2"/>
</svg>
