<svg width="15" height="17" viewBox="0 0 15 17" fill="none" xmlns="http://www.w3.org/2000/svg">
<path d="M14.7141 7.50323C14.7141 5.8927 13.3509 4.58244 11.6753 4.58244C10.9367 4.58244 10.2397 4.83494 9.69324 5.28865C9.29336 4.95802 8.80332 4.72557 8.26388 4.63045C8.56763 2.38921 10.9709 2.13355 11.0779 2.12339C11.3628 2.09816 11.5726 1.85568 11.5464 1.58177C11.5201 1.30788 11.268 1.10618 10.9828 1.13148C10.9445 1.1349 10.0333 1.22056 9.11764 1.73931C8.63319 2.01376 8.0962 2.43954 7.71321 3.08559C7.4647 2.22795 7.02389 1.59608 6.61578 1.16179C5.87464 0.373109 5.07944 0.0511479 5.04597 0.0378339C4.91332 -0.0148911 4.76381 -0.0124341 4.63313 0.0447399C4.50245 0.101914 4.40234 0.208659 4.35664 0.339475C4.34424 0.375001 4.05507 1.22166 4.26227 2.28316C4.4183 3.08253 4.88523 4.13527 6.16488 4.99146C6.01258 5.07858 5.86877 5.17805 5.73505 5.28855C5.18843 4.83491 4.49136 4.58241 3.75295 4.58241C2.07732 4.58241 0.714111 5.89266 0.714111 7.5032C0.714111 8.72746 1.50196 9.77804 2.61583 10.2116C2.40069 10.9806 2.52232 11.8042 2.97232 12.5028C3.37345 13.1255 3.9854 13.5676 4.69144 13.7666C4.60816 14.4919 4.80986 15.2177 5.27465 15.8196C5.85395 16.5698 6.74308 17 7.71411 17C9.38974 17 10.7529 15.6897 10.7529 14.0792C10.7529 13.9675 10.7454 13.8616 10.7345 13.7659C11.4921 13.5512 12.1416 13.0569 12.532 12.3782C12.9165 11.7098 13.0107 10.9328 12.8113 10.2121C13.9258 9.77874 14.7141 8.72789 14.7141 7.50323ZM9.71663 7.5032C9.71663 8.5645 8.81831 9.42792 7.71411 9.42792C6.60991 9.42792 5.71159 8.5645 5.71159 7.5032C5.71159 6.44189 6.60991 5.57847 7.71411 5.57847C8.81831 5.57847 9.71663 6.44193 9.71663 7.5032ZM5.22698 1.29188C5.84884 1.73174 6.76374 2.6437 6.86737 4.24507C5.36512 3.29463 5.17886 2.03903 5.22698 1.29188ZM1.75043 7.50323C1.75043 6.44193 2.64875 5.5785 3.75295 5.5785C4.24648 5.5785 4.71189 5.75006 5.07453 6.05731C4.8206 6.48389 4.67527 6.97754 4.67527 7.50323C4.67527 8.02892 4.8206 8.52257 5.07453 8.94915C4.71189 9.25637 4.24648 9.42796 3.75295 9.42796C2.64875 9.42796 1.75043 8.56454 1.75043 7.50323ZM3.85344 11.9785C3.54731 11.5033 3.47124 10.941 3.63128 10.4215C3.67167 10.423 3.71219 10.424 3.75295 10.424C4.49136 10.424 5.18846 10.1715 5.73509 9.71784C6.07099 9.99555 6.4706 10.2039 6.90958 10.3199C6.7628 10.9397 6.8312 11.5909 7.10963 12.1761C6.73158 12.6266 6.16764 12.8889 5.55338 12.8889C5.48664 12.8889 5.42053 12.8858 5.3551 12.8796C5.35479 12.8796 5.35448 12.8796 5.35417 12.8795C4.73645 12.8213 4.18534 12.4938 3.85344 11.9785ZM7.71411 16.004C7.07443 16.004 6.48859 15.7204 6.10681 15.226C5.80203 14.8313 5.669 14.3558 5.72158 13.8803C6.4869 13.8408 7.19091 13.532 7.71605 13.018C8.24374 13.5279 8.95497 13.8384 9.70533 13.8799C9.7121 13.9418 9.71666 14.009 9.71666 14.0792C9.71663 15.1405 8.81831 16.004 7.71411 16.004ZM11.625 11.8963C11.3019 12.4581 10.737 12.8165 10.0745 12.8795C10.0744 12.8795 10.0742 12.8795 10.074 12.8795C10.0737 12.8795 10.0734 12.8795 10.0731 12.8796C9.30763 12.9529 8.55592 12.5904 8.15821 11.956C7.86445 11.4863 7.79529 10.9282 7.95564 10.4148C8.61644 10.3646 9.2184 10.1104 9.69324 9.71778C10.2397 10.1715 10.9367 10.424 11.6753 10.424C11.7162 10.424 11.7569 10.423 11.7974 10.4214C11.9494 10.9106 11.8916 11.4331 11.625 11.8963ZM11.6753 9.42796C11.1816 9.42796 10.7162 9.25637 10.3537 8.94908C10.6076 8.5225 10.7529 8.02889 10.7529 7.50323C10.7529 6.97757 10.6076 6.48396 10.3537 6.05738C10.7162 5.75013 11.1816 5.5785 11.6752 5.5785C12.7794 5.5785 13.6778 6.44193 13.6778 7.50323C13.6778 8.56454 12.7795 9.42796 11.6753 9.42796Z" fill="#D5AF86"/>
</svg>
