<svg width="17" height="16" viewBox="0 0 17 16" fill="none" xmlns="http://www.w3.org/2000/svg">
<path d="M14.2037 4.74438V1.76674L11.2245 0L8.71411 1.48888L6.20374 0L3.22449 1.76674V4.74438L0.714111 6.23326V9.76687L3.22449 11.2556V14.2333L6.20361 16L8.71411 14.5112L11.2245 16L14.2036 14.2333V11.2556L16.7141 9.76687V6.23326L14.2037 4.74438ZM13.2662 2.32285V4.74438L11.2246 5.95527L9.18286 4.74438V2.32272L11.2245 1.11196L13.2662 2.32285ZM8.71411 10.4217L6.67249 9.21076V6.78924L8.71411 5.57834L10.7557 6.78924V9.21089L8.71411 10.4217ZM6.20374 1.11196L8.24536 2.32272V4.74438L6.20374 5.95527L4.16211 4.74438V2.32285L6.20374 1.11196ZM1.65161 9.21089V6.78924L3.69336 5.57834L5.73499 6.78924V9.21089L3.69336 10.4217L1.65161 9.21089ZM4.16199 13.6773V11.2556L6.20361 10.0449L8.24536 11.2556V13.6773L6.20374 14.888L4.16199 13.6773ZM11.2245 14.888L9.18286 13.6773V11.2556L11.2245 10.0449L13.2661 11.2556V13.6773L11.2245 14.888ZM15.7766 9.21089L13.735 10.4217L11.6934 9.21089V6.78924L13.735 5.57834L15.7766 6.78924V9.21089Z" fill="#D5AF86"/>
</svg>
