<svg width="17" height="16" viewBox="0 0 17 16" fill="none" xmlns="http://www.w3.org/2000/svg">
<path d="M13.8906 8.47059V4.5408L12.0082 2.18786V0H2.59646V2.18786L0.714111 4.5408V16H14.539C15.4789 16 16.2435 15.2353 16.2435 14.2954V8.47059H13.8906ZM15.3023 10.3529H12.4788V9.41177H15.3023V10.3529ZM12.9494 8.47059H11.5376V14.2954C11.5376 14.5698 11.6032 14.829 11.7188 15.0588H10.1259V4.87096L11.5376 3.10626L12.9494 4.87096V8.47059ZM9.42909 4.23529H2.16381L3.29322 2.82353H10.5585L9.42909 4.23529ZM9.1847 5.17647V12.7059H1.65529V5.17647H9.1847ZM3.53764 0.941177H11.0671V1.88235H3.53764V0.941177ZM1.65529 13.6471H9.1847V15.0588H1.65529V13.6471ZM14.539 15.0588C14.2233 15.0588 13.5199 15.0588 13.2422 15.0588C12.8213 15.0588 12.4788 14.7164 12.4788 14.2954V11.2941H15.3024V14.2954C15.3023 14.7164 14.9599 15.0588 14.539 15.0588Z" fill="#D5AF86"/>
</svg>
