<svg width="17" height="17" viewBox="0 0 17 17" fill="none" xmlns="http://www.w3.org/2000/svg">
<path d="M15.1294 7.53208C14.8927 7.3581 14.5987 7.14077 14.5601 6.99679C14.5181 6.83946 14.6681 6.49283 14.7894 6.21486C14.9967 5.73755 15.2114 5.2436 14.9734 4.83163C14.7327 4.41433 14.1921 4.35367 13.6701 4.29502C13.3722 4.26168 13.0015 4.22037 12.8909 4.10904C12.7795 3.99839 12.7382 3.62774 12.7049 3.32976C12.6462 2.80781 12.5855 2.26786 12.1683 2.02654C11.8056 1.8159 11.2684 1.99988 10.7851 2.21052C10.5177 2.32651 10.2391 2.43716 10.0025 2.43984C9.85848 2.40185 9.64184 2.10722 9.46717 1.87055C9.16657 1.46262 8.82591 1 8.33395 1C7.84265 1 7.50137 1.46262 7.20071 1.86992C7.02607 2.10656 6.8094 2.40122 6.60542 2.44653C6.42609 2.44653 6.15011 2.32654 5.88282 2.21055C5.39821 1.99991 4.86026 1.81793 4.50029 2.02657C4.08233 2.26789 4.02167 2.80784 3.96299 3.3298C3.93034 3.62777 3.88834 3.99774 3.77766 4.10907C3.66633 4.22041 3.29571 4.26171 2.99839 4.29505C2.47578 4.35371 1.93514 4.41504 1.6945 4.83166C1.45652 5.24297 1.67116 5.73693 1.87849 6.21489C1.99982 6.49286 2.15046 6.83949 2.10847 6.99682C2.06981 7.14081 1.77515 7.35813 1.53917 7.53212C1.13058 7.83275 0.667969 8.17403 0.667969 8.66598C0.667969 9.15794 1.13058 9.49926 1.53855 9.79988C1.77518 9.97387 2.06916 10.1912 2.10784 10.3352C2.14984 10.4925 1.99985 10.8391 1.87852 11.1171C1.67119 11.5944 1.45656 12.0884 1.69454 12.5003C1.93517 12.9176 2.47581 12.9783 2.99776 13.0369C3.29574 13.0703 3.66636 13.1116 3.77704 13.2229C3.88837 13.3336 3.92968 13.7042 3.96302 14.0022C4.02167 14.5242 4.08236 15.0641 4.49963 15.3054C4.86095 15.5154 5.39821 15.3321 5.88286 15.1214C6.15018 15.0055 6.42346 14.8881 6.66544 14.8921C6.80943 14.9301 7.02607 15.2248 7.20074 15.4614C7.50137 15.8694 7.84203 16.332 8.33398 16.332C8.82528 16.332 9.16657 15.8694 9.46654 15.4621C9.64118 15.2254 9.85785 14.9308 10.0618 14.8855C10.2418 14.8855 10.5178 15.0055 10.7844 15.1214C11.2697 15.3328 11.807 15.5148 12.167 15.3061C12.5849 15.0648 12.6456 14.5248 12.7043 14.0022C12.7369 13.7042 12.7789 13.3343 12.8896 13.2229C13.0009 13.1116 13.3715 13.0703 13.6689 13.0369C14.1915 12.9783 14.7321 12.917 14.9727 12.5003C15.2114 12.089 14.9967 11.5951 14.7888 11.1171C14.6674 10.8391 14.5174 10.4932 14.5594 10.3352C14.5981 10.1912 14.8928 9.97387 15.1287 9.79988C15.5374 9.49926 16 9.15794 16 8.66598C16 8.17403 15.5373 7.83275 15.1294 7.53208ZM14.7347 9.26193C14.3808 9.52257 14.0148 9.79189 13.9162 10.1612C13.8142 10.5438 13.9995 10.9698 14.1788 11.3817C14.2934 11.6457 14.4668 12.0443 14.3974 12.165C14.3248 12.291 13.8868 12.3403 13.5961 12.373C13.1535 12.423 12.6956 12.4743 12.4196 12.7503C12.1436 13.0263 12.0923 13.4843 12.043 13.9269C12.0103 14.2168 11.961 14.6555 11.8343 14.7281C11.815 14.7395 11.783 14.7421 11.7597 14.7421C11.5864 14.7421 11.3144 14.6235 11.0511 14.5095C10.6378 14.3302 10.1858 14.1515 9.8312 14.2475C9.46123 14.3462 9.19191 14.7121 8.93062 15.0661C8.75464 15.3047 8.48866 15.6654 8.33402 15.6654C8.17937 15.6654 7.91271 15.3048 7.73741 15.0661C7.47678 14.7128 7.20746 14.3468 6.83749 14.2482C6.76484 14.2288 6.68685 14.2188 6.60485 14.2188C6.28688 14.2188 5.94626 14.3668 5.61694 14.5108C5.35431 14.6248 5.08233 14.7435 4.90835 14.7435C4.88501 14.7435 4.85301 14.7408 4.8337 14.7295C4.70705 14.6561 4.65837 14.2182 4.62572 13.9282C4.57572 13.4856 4.52438 13.0276 4.2484 12.7516C3.97309 12.4757 3.51447 12.4243 3.07185 12.3743C2.78253 12.3417 2.34392 12.2923 2.27127 12.1663C2.20127 12.0463 2.37526 11.647 2.4899 11.3831C2.66923 10.9711 2.85453 10.5451 2.75254 10.1625C2.6532 9.7932 2.28723 9.52391 1.93395 9.26324C1.69532 9.0866 1.33466 8.82063 1.33466 8.66595C1.33466 8.51128 1.69528 8.24533 1.93395 8.06866C2.28792 7.80803 2.65389 7.53871 2.75254 7.1694C2.85453 6.78677 2.6692 6.36081 2.4899 5.94885C2.37591 5.68487 2.20193 5.28625 2.27127 5.16557C2.3446 5.03958 2.78256 4.99024 3.07254 4.95825C3.51516 4.90825 3.97312 4.85691 4.24909 4.58094C4.52507 4.30496 4.57641 3.847 4.6264 3.40438C4.6584 3.11441 4.70774 2.67645 4.83438 2.60311C4.85373 2.59177 4.88572 2.58911 4.90903 2.58911C5.08236 2.58911 5.35434 2.70776 5.61697 2.82243C6.03028 3.00176 6.48155 3.18106 6.83687 3.08441C7.20683 2.98576 7.47615 2.6198 7.73744 2.26583C7.91343 2.02719 8.1794 1.66654 8.33405 1.66654C8.48869 1.66654 8.75535 2.02716 8.93134 2.26514C9.19197 2.61845 9.46129 2.98442 9.83126 3.08307C10.1832 3.17706 10.6378 3.00107 11.0512 2.82109C11.3138 2.7071 11.5858 2.58845 11.7597 2.58845C11.7831 2.58845 11.8151 2.59111 11.8344 2.60245C11.961 2.67579 12.0097 3.11375 12.0424 3.40373C12.0924 3.84634 12.1437 4.3043 12.4197 4.58028C12.695 4.85626 13.1536 4.9076 13.5962 4.95759C13.8856 4.99024 14.3242 5.03958 14.3968 5.16557C14.4668 5.28556 14.2928 5.68487 14.1782 5.94885C13.9989 6.36081 13.8136 6.78677 13.9156 7.1694C14.0149 7.53871 14.3809 7.808 14.7341 8.06866C14.9728 8.2453 15.3334 8.51128 15.3334 8.66595C15.3334 8.82063 14.9727 9.08663 14.7347 9.26193Z" fill="#D5AF86" stroke="#D5AF86" stroke-width="0.3"/>
<path d="M6.33412 6.99946C6.15013 6.99946 6.0008 7.14879 6.0008 7.33277V8.99928L4.60092 7.13279C4.51493 7.01814 4.36429 6.9708 4.22896 7.0168C4.09297 7.06214 4.00098 7.18944 4.00098 7.33277V9.9992C4.00098 10.1832 4.15031 10.3325 4.33429 10.3325C4.51827 10.3325 4.66761 10.1832 4.66761 9.9992V8.33269L6.06748 10.1992C6.13148 10.2845 6.23147 10.3325 6.33412 10.3325C6.36946 10.3325 6.40477 10.3272 6.43945 10.3152C6.57544 10.2698 6.66743 10.1425 6.66743 9.9992V7.33277C6.66743 7.14879 6.5181 6.99946 6.33412 6.99946Z" fill="#D5AF86" stroke="#D5AF86" stroke-width="0.3"/>
<path d="M9.00059 9.66593H8.00067V7.66611H9.00059C9.18457 7.66611 9.3339 7.51678 9.3339 7.33279C9.3339 7.14881 9.18457 6.99951 9.00059 6.99951H7.66736C7.48338 6.99951 7.33405 7.14884 7.33405 7.33283V9.99925C7.33405 10.1832 7.48338 10.3326 7.66736 10.3326H9.00059C9.18457 10.3326 9.3339 10.1832 9.3339 9.99925C9.3339 9.81526 9.18457 9.66593 9.00059 9.66593Z" fill="#D5AF86" stroke="#D5AF86" stroke-width="0.3"/>
<path d="M9.00059 8.33276H7.66736C7.48338 8.33276 7.33405 8.48209 7.33405 8.66608C7.33405 8.85006 7.48338 8.99936 7.66736 8.99936H9.00059C9.18457 8.99936 9.3339 8.85003 9.3339 8.66605C9.3339 8.48206 9.18457 8.33276 9.00059 8.33276Z" fill="#D5AF86" stroke="#D5AF86" stroke-width="0.3"/>
<path d="M13.0802 7.00944C12.9002 6.96479 12.7202 7.07278 12.6762 7.25208L12.2876 8.80794L11.9829 7.89402C11.8923 7.62204 11.4416 7.62204 11.3503 7.89402L11.0457 8.80794L10.6571 7.25208C10.6124 7.07275 10.4284 6.9641 10.2531 7.00944C10.0745 7.05409 9.96649 7.23476 10.0105 7.41341L10.6771 10.0798C10.7131 10.2232 10.8397 10.3265 10.9877 10.3318C11.155 10.3385 11.2703 10.2445 11.317 10.1045L11.667 9.05323L12.017 10.1045C12.063 10.2411 12.1903 10.3325 12.3336 10.3325C12.3376 10.3325 12.3422 10.3325 12.3456 10.3318C12.4936 10.3265 12.6202 10.2238 12.6562 10.0798L13.3228 7.41341C13.3674 7.23476 13.2594 7.05409 13.0802 7.00944Z" fill="#D5AF86" stroke="#D5AF86" stroke-width="0.3"/>
</svg>
