<svg width="15" height="15" viewBox="0 0 15 15" fill="none" xmlns="http://www.w3.org/2000/svg">
<path d="M13.8168 1.18292C13.5732 0.939028 13.178 0.939028 12.9344 1.18292L0.891762 13.2255C0.647977 13.4692 0.647977 13.8641 0.891762 14.1078C1.0136 14.2298 1.17336 14.2907 1.33301 14.2907C1.49266 14.2907 1.65241 14.2298 1.77415 14.1078L13.8168 2.0652C14.0605 1.82152 14.0605 1.4266 13.8168 1.18292Z" fill="#D5AF86" stroke="white" stroke-width="0.3"/>
<path d="M3.66853 1.00452C2.03423 1.00452 0.704468 2.33438 0.704468 3.96869C0.704468 5.603 2.03423 6.93275 3.66853 6.93275C5.30295 6.93275 6.6326 5.60289 6.6326 3.96858C6.6326 2.33427 5.30284 1.00452 3.66853 1.00452ZM3.66853 5.68464C2.72227 5.68464 1.95248 4.91475 1.95248 3.96858C1.95248 3.02242 2.72237 2.25253 3.66853 2.25253C4.6148 2.25253 5.38459 3.02242 5.38459 3.96858C5.38459 4.91475 4.6148 5.68464 3.66853 5.68464Z" fill="#D5AF86" stroke="white" stroke-width="0.3"/>
<path d="M11.0359 8.36206C9.4016 8.36206 8.07184 9.69182 8.07184 11.3261C8.07184 12.9604 9.4016 14.2902 11.0359 14.2902C12.6702 14.2902 14 12.9605 14 11.3261C14 9.69171 12.6702 8.36206 11.0359 8.36206ZM11.0359 13.0421C10.0896 13.0421 9.31985 12.2722 9.31985 11.326C9.31985 10.3799 10.0897 9.60997 11.0359 9.60997C11.9821 9.60997 12.752 10.3799 12.752 11.326C12.752 12.2722 11.9822 13.0421 11.0359 13.0421Z" fill="#D5AF86" stroke="white" stroke-width="0.3"/>
</svg>
