<svg width="17" height="20" viewBox="0 0 17 20" fill="none" xmlns="http://www.w3.org/2000/svg">
<path d="M16.145 2.98206C15.7648 2.98206 16.0137 2.97274 15.0886 3.02864C15.5521 2.06161 15.4259 2.33695 15.664 1.7824C15.7868 1.49644 15.6519 1.16622 15.3625 1.04487C15.0732 0.923473 14.7392 1.05689 14.6163 1.34285L14.0706 2.61359C12.2716 1.33283 9.77561 1.58528 8.27609 3.22812C8.27609 3.22812 2.13043 8.56309 2.11681 8.57775C-0.520696 10.994 0.7656 15.3359 4.27141 15.9914V16.7931C4.27141 18.8918 8.9762 19.5884 11.5597 18.4712C12.4978 18.0655 13.0144 17.4695 13.0144 16.7931V14.925C13.0144 13.7523 11.561 13.1276 10.3791 12.8865L14.3931 9.37965C15.9985 7.97531 16.2904 5.79259 15.3878 4.10708H16.145C16.4593 4.10708 16.7141 3.85526 16.7141 3.54459C16.7141 3.23392 16.4592 2.98206 16.145 2.98206ZM1.85229 11.7462C1.85229 9.98394 3.30277 8.55025 5.08562 8.55025C7.27611 8.55025 8.83838 10.6715 8.16142 12.7309C7.24887 12.7777 6.39763 12.9565 5.72605 13.2469C4.82772 13.6354 4.31626 14.1984 4.27447 14.8395C2.88307 14.4827 1.85229 13.2315 1.85229 11.7462ZM11.1035 17.4404C9.76605 18.0189 7.52043 18.0192 6.18227 17.4404C5.64848 17.2096 5.40953 16.9489 5.40953 16.793V16.4503C7.10055 17.3587 10.1851 17.3589 11.8762 16.4503V16.793C11.8762 16.9489 11.6373 17.2096 11.1035 17.4404ZM11.8762 14.925C11.8762 15.0809 11.6373 15.3416 11.1035 15.5724C9.76601 16.1508 7.52039 16.1511 6.18224 15.5724C5.64844 15.3416 5.4095 15.0809 5.4095 14.925C5.4095 14.7691 5.64844 14.5084 6.18224 14.2776C7.51968 13.6992 9.7653 13.6989 11.1035 14.2776C11.6373 14.5084 11.8762 14.7691 11.8762 14.925ZM13.642 8.53299C13.6073 8.56277 14.0845 8.14765 9.43147 12.2128C9.708 9.68417 7.72277 7.47069 5.16355 7.42622C9.3301 3.8104 9.06772 4.04095 9.10286 4.00186C9.71803 3.31667 10.5889 2.92577 11.5215 2.92577C13.3043 2.92577 14.7548 4.35947 14.7548 6.12172C14.7548 7.0459 14.3492 7.9248 13.642 8.53299Z" fill="#D5AF86" stroke="white" stroke-width="0.2"/>
<path d="M4.99347 11.1211C5.3755 10.9425 5.53072 10.5075 5.34018 10.1494C5.14965 9.79141 4.68549 9.6459 4.30345 9.82449C3.92142 10.0031 3.7662 10.4381 3.95674 10.7961C4.14728 11.1541 4.61144 11.2996 4.99347 11.1211Z" fill="#D5AF86" stroke="white" stroke-width="0.2"/>
<path d="M4.54809 13.7542C4.80898 13.6322 4.91497 13.3352 4.78487 13.0907C4.65476 12.8462 4.33782 12.7468 4.07693 12.8688C3.81604 12.9907 3.71004 13.2878 3.84015 13.5323C3.97026 13.7768 4.2872 13.8761 4.54809 13.7542Z" fill="#D5AF86" stroke="white" stroke-width="0.2"/>
<path d="M6.94128 12.1887C7.20217 12.0668 7.30816 11.7697 7.17806 11.5252C7.04795 11.2807 6.73101 11.1814 6.47012 11.3033C6.20923 11.4253 6.10323 11.7223 6.23334 11.9668C6.36345 12.2113 6.68039 12.3107 6.94128 12.1887Z" fill="#D5AF86" stroke="white" stroke-width="0.2"/>
<path d="M12.7268 6.75806L10.048 8.91265C9.80421 9.10872 9.7674 9.46302 9.96576 9.70397C10.1634 9.94416 10.5218 9.98195 10.7663 9.78525L13.4451 7.63066C13.6889 7.43459 13.7257 7.08029 13.5274 6.83934C13.3291 6.59838 12.9706 6.56196 12.7268 6.75806Z" fill="#D5AF86" stroke="white" stroke-width="0.2"/>
<path d="M7.26923 14.4208C6.98074 14.425 6.75467 14.5413 6.76427 14.6805C6.77391 14.8198 7.01556 14.9292 7.30405 14.9249C7.59254 14.9207 7.81861 14.8044 7.809 14.6651C7.79937 14.5259 7.55772 14.4165 7.26923 14.4208Z" fill="#D5AF86" stroke="white" stroke-width="0.2"/>
<path d="M9.71368 15.4968C10.1361 15.5057 10.4732 15.3548 10.4665 15.1599C10.4599 14.965 10.1121 14.7998 9.68967 14.7909C9.26723 14.782 8.93015 14.9329 8.9368 15.1278C8.94342 15.3227 9.29124 15.4879 9.71368 15.4968Z" fill="#D5AF86" stroke="white" stroke-width="0.2"/>
</svg>
