<svg width="17" height="17" viewBox="0 0 17 17" fill="none" xmlns="http://www.w3.org/2000/svg">
<path d="M4.35732 16C4.19297 16 4.02978 15.9465 3.8905 15.8414C3.63106 15.6452 3.50986 15.308 3.58047 14.9825L4.54546 10.5469L1.27283 7.55204C1.03227 7.3329 0.940369 6.98586 1.03913 6.66832C1.1379 6.35138 1.40661 6.12698 1.72477 6.09629L6.05486 5.68608L7.76682 1.50551C7.89305 1.19836 8.18054 1 8.49995 1C8.81936 1 9.10684 1.19836 9.23308 1.50479L10.945 5.68608L15.2744 6.09629C15.5933 6.12627 15.862 6.35138 15.9608 6.66832C16.0595 6.98526 15.9682 7.3329 15.7276 7.55204L12.455 10.5463L13.42 14.9818C13.4907 15.308 13.3694 15.6452 13.1101 15.8408C12.8513 16.0364 12.5063 16.0515 12.2338 15.8806L8.49995 13.5522L4.76611 15.8819C4.63988 15.9601 4.49923 16 4.35732 16ZM8.49995 12.5492C8.64186 12.5492 8.7824 12.589 8.90874 12.6672L12.4326 14.8665L11.5218 10.6799C11.4568 10.382 11.5538 10.0709 11.7744 9.86928L14.8645 7.04139L10.7762 6.65399C10.4819 6.62593 10.2287 6.43282 10.1137 6.14979L8.49995 2.2046L6.88423 6.15039C6.77048 6.43151 6.51733 6.62461 6.22366 6.65268L2.13482 7.04008L5.2248 9.86797C5.44613 10.0701 5.54295 10.3806 5.47738 10.6793L4.56732 14.8657L8.09116 12.6672C8.21739 12.589 8.35804 12.5492 8.49995 12.5492ZM6.02178 5.76693C6.02178 5.76693 6.02178 5.76765 6.0211 5.76824L6.02178 5.76693ZM10.9769 5.76502L10.9775 5.76633C10.9775 5.76562 10.9775 5.76562 10.9769 5.76502Z" fill="#D5AF86" stroke="white" stroke-width="0.1"/>
</svg>
