<svg width="17" height="16" viewBox="0 0 17 16" fill="none" xmlns="http://www.w3.org/2000/svg">
<path d="M16.153 5.99716C15.8745 5.62793 15.5069 5.32883 15.092 5.12904C15.1143 4.98376 15.1255 4.83653 15.1255 4.6885C15.1255 3.09394 13.8283 1.79667 12.2337 1.79667C11.9667 1.79667 11.7 1.83425 11.4436 1.90703C11.2774 1.44875 10.9962 1.03581 10.623 0.7107C10.0971 0.25242 9.42281 0 8.72447 0C8.02613 0 7.35185 0.252389 6.82586 0.7107C6.45272 1.03584 6.17148 1.44872 6.00533 1.907C5.74887 1.83422 5.48224 1.79664 5.21521 1.79664C3.62065 1.79664 2.32338 3.09391 2.32338 4.68847C2.32338 4.83653 2.33461 4.98373 2.35689 5.12901C1.94204 5.3288 1.57441 5.6279 1.29589 5.99713C0.915309 6.50172 0.714111 7.10325 0.714111 7.73678C0.714111 9.33135 2.01138 10.6286 3.60594 10.6286C3.98903 10.6286 4.36715 10.5511 4.71732 10.4054L5.70985 12.0033C6.09573 12.6245 6.29974 13.3395 6.29974 14.0708V16H11.1493V14.0708C11.1493 13.3395 11.3532 12.6245 11.7391 12.0033L12.7316 10.4054C13.0818 10.5511 13.4599 10.6286 13.843 10.6286C15.4376 10.6286 16.7349 9.33135 16.7349 7.73678C16.7348 7.10325 16.5336 6.50172 16.153 5.99716ZM10.9417 11.5079C10.4633 12.278 10.2105 13.1642 10.2105 14.0707V15.0612H7.23842V14.0707C7.23842 13.1642 6.98556 12.278 6.50723 11.5079L5.51385 9.90869C5.78163 9.67288 6.00367 9.38964 6.16807 9.07589C6.32349 9.186 6.48889 9.2846 6.6618 9.37249L8.72447 13.3542L10.7871 9.37252C10.96 9.28463 11.1254 9.18603 11.2809 9.07592C11.4453 9.38967 11.6673 9.67294 11.9351 9.90872L10.9417 11.5079ZM7.93301 9.78568C8.19034 9.82858 8.45503 9.85139 8.72447 9.85139C8.99391 9.85139 9.25856 9.82855 9.51593 9.78568L8.72447 11.3135L7.93301 9.78568ZM13.843 9.68987C12.9281 9.68987 12.1457 9.06791 11.9405 8.17742L11.7435 7.32306L11.1417 7.96067C10.5792 8.55678 9.67551 8.91265 8.72447 8.91265C7.77343 8.91265 6.86976 8.55678 6.30719 7.96067L5.70541 7.32306L5.50847 8.17742C5.30317 9.06791 4.52085 9.68987 3.60594 9.68987C2.52899 9.68987 1.65282 8.81374 1.65282 7.73678C1.65282 6.88268 2.22341 6.11384 3.04037 5.86712L3.49521 5.72975L3.35233 5.27667C3.29248 5.08686 3.26212 4.88895 3.26212 4.6885C3.26212 3.61154 4.13829 2.73538 5.21524 2.73538C5.53087 2.73538 5.83267 2.80885 6.11215 2.95373L6.69685 3.2568L6.7925 2.60521C6.93199 1.65517 7.76257 0.938745 8.72447 0.938745C9.68637 0.938745 10.5169 1.65517 10.6564 2.60521L10.7521 3.2568L11.3368 2.95373C11.6163 2.80885 11.9181 2.73538 12.2337 2.73538C13.3106 2.73538 14.1868 3.61154 14.1868 4.6885C14.1868 4.88895 14.1565 5.08683 14.0966 5.27667L13.9537 5.72975L14.4086 5.86712C15.2255 6.11384 15.7961 6.88268 15.7961 7.73678C15.7961 8.81374 14.9199 9.68987 13.843 9.68987Z" fill="#D5AF86"/>
</svg>
